<?xml version="1.0" encoding="UTF-8" standalone="no"?>
<!-- Created with Inkscape (http://www.inkscape.org/) -->

<svg
   xmlns:dc="http://purl.org/dc/elements/1.1/"
   xmlns:cc="http://creativecommons.org/ns#"
   xmlns:rdf="http://www.w3.org/1999/02/22-rdf-syntax-ns#"
   xmlns:svg="http://www.w3.org/2000/svg"
   xmlns="http://www.w3.org/2000/svg"
   xmlns:sodipodi="http://sodipodi.sourceforge.net/DTD/sodipodi-0.dtd"
   xmlns:inkscape="http://www.inkscape.org/namespaces/inkscape"
   width="500"
   height="500"
   viewBox="0 0 500 500"
   id="svg2"
   version="1.1"
   inkscape:version="0.91 r13725"
   sodipodi:docname="json5-logo-paths.svg"
   inkscape:export-xdpi="75.599998"
   inkscape:export-ydpi="75.599998">
  <defs
     id="defs4" />
  <sodipodi:namedview
     id="base"
     pagecolor="#ffffff"
     bordercolor="#666666"
     borderopacity="1.0"
     inkscape:pageopacity="0.0"
     inkscape:pageshadow="2"
     inkscape:zoom="0.70000001"
     inkscape:cx="-41.402176"
     inkscape:cy="117.28264"
     inkscape:document-units="px"
     inkscape:current-layer="layer1"
     showgrid="false"
     units="px"
     showguides="true"
     inkscape:guide-bbox="true"
     inkscape:snap-nodes="true"
     inkscape:snap-object-midpoints="false"
     inkscape:snap-others="true"
     inkscape:snap-to-guides="true"
     inkscape:snap-grids="true"
     inkscape:window-width="1920"
     inkscape:window-height="1017"
     inkscape:window-x="-8"
     inkscape:window-y="-8"
     inkscape:window-maximized="1" />
  <metadata
     id="metadata7">
    <rdf:RDF>
      <cc:Work
         rdf:about="">
        <dc:format>image/svg+xml</dc:format>
        <dc:type
           rdf:resource="http://purl.org/dc/dcmitype/StillImage" />
        <dc:title></dc:title>
      </cc:Work>
    </rdf:RDF>
  </metadata>
  <g
     inkscape:label="Layer 1"
     inkscape:groupmode="layer"
     id="layer1"
     transform="translate(0,-552.36223)">
    <g
       style="font-style:normal;font-weight:normal;font-size:115.28935242px;line-height:125%;font-family:sans-serif;letter-spacing:0px;word-spacing:0px;fill:#000000;fill-opacity:1;stroke:none;stroke-width:1px;stroke-linecap:butt;stroke-linejoin:miter;stroke-opacity:1"
       id="text4141">
      <path
         d="m 29.385275,856.54494 q -5.798244,-1.63251 -9.682505,-4.27831 -3.88426,-2.6458 -6.248592,-6.07972 -2.364333,-3.37761 -3.377618,-7.43075 -0.9569919,-3.99685 -0.9569919,-8.44405 l 0,-11.42761 q 0,-2.53321 -0.5629363,-4.55978 -0.5066427,-2.02657 -1.6325152,-3.43391 -1.069579,-1.46364 -2.8146815,-2.25175 Q 2.4206262,807.85095 1.7881393e-7,807.85095 l 0,-12.77865 Q 4.7849587,795.0723 6.9241166,792.08874 q 2.1954515,-3.03986 2.1954515,-8.10629 l 0,-11.4276 q 0,-4.4472 0.9569919,-8.44405 1.013285,-4.05314 3.377618,-7.43076 2.364332,-3.43391 6.248592,-6.02341 3.884261,-2.6458 9.682505,-4.27832 l 3.546498,9.90768 q -2.195451,0.8444 -3.602792,2.42062 -1.407341,1.57623 -2.251745,3.71538 -0.844405,2.08287 -1.182166,4.67238 -0.337762,2.5895 -0.337762,5.46048 l 0,11.4276 q 0,5.62937 -2.47692,10.18915 -2.47692,4.55979 -7.937402,7.26188 5.460482,2.70209 7.937402,7.31817 2.47692,4.55979 2.47692,10.13285 l 0,11.42761 q 0,2.87098 0.337762,5.46048 0.337761,2.58951 1.182166,4.67237 0.844404,2.13916 2.251745,3.71538 1.407341,1.57623 3.602792,2.42063 l -3.546498,9.96397 z"
         style="font-style:normal;font-variant:normal;font-weight:normal;font-stretch:normal;font-family:Roboto;-inkscape-font-specification:Roboto;letter-spacing:0px;fill:#999999;fill-opacity:1"
         id="path4139"
         inkscape:connector-curvature="0" />
      <path
         d="m 73.96983,754.31571 19.70277,0 0,56.23734 q 0,6.1923 -2.195451,11.14614 -2.195452,4.95384 -6.023418,8.44404 -3.771674,3.49021 -8.950687,5.40419 -5.122721,1.85769 -11.089845,1.85769 -6.1923,0 -11.371314,-1.51993 -5.179013,-1.57622 -8.950687,-4.72866 -3.715379,-3.20874 -5.854537,-8.04999 -2.082864,-4.89755 -2.082864,-11.59649 l 19.815357,0 q 0,3.15244 0.562936,5.23531 0.562937,2.02657 1.632516,3.26503 1.069579,1.18216 2.6458,1.68881 1.576222,0.50664 3.602793,0.50664 4.109435,0 6.304886,-3.03986 2.251745,-3.09615 2.251745,-8.61292 l 0,-56.23734 z"
         style="font-style:normal;font-variant:normal;font-weight:normal;font-stretch:normal;font-family:Roboto;-inkscape-font-specification:Roboto;letter-spacing:0px"
         id="path4141"
         inkscape:connector-curvature="0" />
      <path
         d="m 148.4463,814.4936 q 0,-1.91398 -0.56293,-3.43391 -0.50665,-1.57622 -2.08287,-2.92727 -1.57622,-1.40734 -4.44719,-2.75839 -2.81469,-1.35104 -7.43076,-2.87097 -5.40419,-1.8014 -10.41433,-4.05314 -5.01013,-2.25175 -8.89439,-5.3479 -3.88426,-3.09615 -6.24859,-7.20558 -2.30804,-4.16573 -2.30804,-9.68251 0,-5.2916 2.36433,-9.51362 2.36433,-4.27832 6.58636,-7.26188 4.22202,-2.98356 9.96397,-4.61608 5.79824,-1.63251 12.60977,-1.63251 6.69894,0 12.32831,1.8014 5.62936,1.80139 9.6825,5.12272 4.05314,3.32132 6.30489,8.04998 2.30804,4.67238 2.30804,10.47062 l -19.70277,0 q 0,-2.30804 -0.73182,-4.22202 -0.67552,-1.97028 -2.13916,-3.32133 -1.40734,-1.40734 -3.5465,-2.19545 -2.08286,-0.78811 -4.95384,-0.78811 -2.81468,0 -4.95384,0.67552 -2.13915,0.61923 -3.60279,1.8014 -1.40734,1.12587 -2.13916,2.6458 -0.73181,1.46364 -0.73181,3.15244 0,1.85769 1.01328,3.37762 1.06958,1.46364 2.98356,2.81468 1.97028,1.29476 4.72867,2.47692 2.81468,1.12588 6.30489,2.25175 6.53006,2.08286 11.65278,4.61608 5.12272,2.53321 8.61292,5.79824 3.5465,3.26503 5.3479,7.37447 1.85769,4.10943 1.85769,9.28844 0,5.51678 -2.19546,9.85139 -2.13915,4.27832 -6.136,7.20558 -3.94055,2.92727 -9.56992,4.4472 -5.57307,1.51993 -12.44089,1.51993 -4.22202,0 -8.38775,-0.73182 -4.16573,-0.67552 -7.9937,-2.13916 -3.77167,-1.46363 -7.09299,-3.65908 -3.26503,-2.25175 -5.68566,-5.3479 -2.36433,-3.09615 -3.77167,-7.0367 -1.35105,-3.94055 -1.35105,-8.78181 l 19.81536,0 q 0,3.6028 0.95699,6.07971 0.95699,2.42063 2.81468,3.94056 1.85769,1.51993 4.50349,2.19545 2.7021,0.61923 6.1923,0.61923 2.81468,0 4.78496,-0.61923 2.02657,-0.67552 3.32132,-1.7451 1.29476,-1.12587 1.85769,-2.58951 0.61923,-1.46363 0.61923,-3.09615 z"
         style="font-style:normal;font-variant:normal;font-weight:normal;font-stretch:normal;font-family:Roboto;-inkscape-font-specification:Roboto;letter-spacing:0px"
         id="path4143"
         inkscape:connector-curvature="0" />
      <path
         d="m 247.86085,796.98628 q 0,9.40104 -2.6458,16.88809 -2.6458,7.48705 -7.43076,12.72236 -4.72866,5.23531 -11.31502,8.04999 -6.53006,2.75839 -14.35487,2.75839 -7.9374,0 -14.58005,-2.75839 -6.58636,-2.81468 -11.37131,-8.04999 -4.72867,-5.23531 -7.37447,-12.72236 -2.6458,-7.48705 -2.6458,-16.88809 l 0,-3.32132 q 0,-9.40104 2.58951,-16.88809 2.6458,-7.48705 7.37446,-12.72236 4.78496,-5.23531 11.37131,-8.04999 6.58636,-2.81468 14.52376,-2.81468 7.82482,0 14.41117,2.81468 6.58635,2.81468 11.31502,8.04999 4.78496,5.23531 7.43076,12.72236 2.70209,7.48705 2.70209,16.88809 l 0,3.32132 z m -20.09682,-3.43391 q 0,-12.21572 -4.10944,-18.5206 -4.05314,-6.36118 -11.65278,-6.36118 -7.9374,0 -11.87795,6.36118 -3.88427,6.30488 -3.88427,18.5206 l 0,3.43391 q 0,12.04684 3.99685,18.52061 3.99685,6.47376 11.87796,6.47376 7.54334,0 11.59649,-6.41747 4.05314,-6.47377 4.05314,-18.5769 l 0,-3.43391 z"
         style="font-style:normal;font-variant:normal;font-weight:normal;font-stretch:normal;font-family:Roboto;-inkscape-font-specification:Roboto;letter-spacing:0px"
         id="path4145"
         inkscape:connector-curvature="0" />
      <path
         d="m 326.39046,836.27924 -19.64647,0 -29.04752,-51.00203 0,51.00203 -19.75906,0 0,-81.96353 19.75906,0 28.99122,51.00203 0,-51.00203 19.70277,0 0,81.96353 z"
         style="font-style:normal;font-variant:normal;font-weight:normal;font-stretch:normal;font-family:Roboto;-inkscape-font-specification:Roboto;letter-spacing:0px"
         id="path4147"
         inkscape:connector-curvature="0" />
      <path
         d="m 339.22541,827.38484 q 0,-2.02657 0.73181,-3.77167 0.78811,-1.7451 2.13916,-2.98356 1.40734,-1.29476 3.32133,-2.02657 1.91398,-0.73182 4.27831,-0.73182 2.30804,0 4.22202,0.73182 1.97028,0.73181 3.32133,2.02657 1.40734,1.23846 2.13916,2.98356 0.78811,1.7451 0.78811,3.77167 0,2.02657 -0.78811,3.77168 -0.73182,1.7451 -2.13916,3.03985 -1.35105,1.23846 -3.32133,1.97028 -1.91398,0.73182 -4.22202,0.73182 -2.36433,0 -4.27831,-0.73182 -1.91399,-0.73182 -3.32133,-1.97028 -1.35105,-1.29475 -2.13916,-3.03985 -0.73181,-1.74511 -0.73181,-3.77168 z m 0,-44.92231 q 0,-2.02657 0.73181,-3.77168 0.78811,-1.7451 2.13916,-2.98356 1.40734,-1.29475 3.32133,-2.02657 1.91398,-0.73182 4.27831,-0.73182 2.30804,0 4.22202,0.73182 1.97028,0.73182 3.32133,2.02657 1.40734,1.23846 2.13916,2.98356 0.78811,1.74511 0.78811,3.77168 0,2.02657 -0.78811,3.77167 -0.73182,1.7451 -2.13916,3.03986 -1.35105,1.23846 -3.32133,1.97027 -1.91398,0.73182 -4.22202,0.73182 -2.36433,0 -4.27831,-0.73182 -1.91399,-0.73181 -3.32133,-1.97027 -1.35105,-1.29476 -2.13916,-3.03986 -0.73181,-1.7451 -0.73181,-3.77167 z"
         style="font-style:normal;font-variant:normal;font-weight:normal;font-stretch:normal;font-family:Roboto;-inkscape-font-specification:Roboto;letter-spacing:0px;fill:#999999;fill-opacity:1"
         id="path4149"
         inkscape:connector-curvature="0" />
      <path
         d="m 373.17045,796.19817 5.01014,-41.88246 47.90588,0 0,14.74893 -32.48143,0 -1.85769,16.26886 q 0.67553,-0.39405 1.85769,-0.9007 1.18217,-0.50664 2.75839,-0.95699 1.57622,-0.50664 3.37762,-0.78811 1.80139,-0.33776 3.77167,-0.33776 6.07971,0 10.80838,1.85769 4.72866,1.8014 7.9374,5.34789 3.20874,3.49021 4.89754,8.61293 1.68881,5.12272 1.68881,11.70907 0,5.2916 -1.7451,10.24544 -1.68881,4.95384 -5.17901,8.8381 -3.49021,3.82797 -8.8381,6.13601 -5.3479,2.30804 -12.66607,2.30804 -5.51677,0 -10.75208,-1.68881 -5.17902,-1.68881 -9.23216,-4.84125 -4.05314,-3.20874 -6.47376,-7.71223 -2.42063,-4.50349 -2.36434,-10.18915 l 19.02725,0 q 0.28147,4.50349 2.87097,7.14929 2.58951,2.6458 6.81153,2.6458 2.81469,0 4.67237,-1.12587 1.85769,-1.12587 2.92727,-3.03985 1.12588,-1.97028 1.51993,-4.55979 0.45035,-2.5895 0.45035,-5.46048 0,-3.03986 -0.67552,-5.46048 -0.67553,-2.42063 -2.08287,-4.10944 -1.40734,-1.68881 -3.65908,-2.5895 -2.19545,-0.957 -5.2916,-0.957 -2.02657,0 -3.65909,0.39406 -1.57622,0.39406 -2.81468,1.01329 -1.18217,0.61923 -2.02657,1.40734 -0.84441,0.73181 -1.40734,1.46363 l -15.0867,-3.5465 z"
         style="font-style:normal;font-variant:normal;font-weight:normal;font-stretch:normal;font-family:Roboto;-inkscape-font-specification:Roboto;letter-spacing:0px"
         id="path4151"
         inkscape:connector-curvature="0" />
      <path
         d="m 457.49831,834.02749 q 0,3.43391 -0.9007,6.86782 -0.9007,3.43391 -2.47692,6.58636 -1.57622,3.20873 -3.71538,5.96712 -2.08286,2.81468 -4.50349,4.89755 l -9.56991,-4.50349 q 0.90069,-1.91399 1.91398,-3.88426 1.06958,-1.91399 1.97028,-4.10944 0.90069,-2.19545 1.51992,-4.84125 0.61923,-2.58951 0.61923,-5.91083 l 0,-13.11642 15.19928,0 -0.0563,12.04684 z"
         style="font-style:normal;font-variant:normal;font-weight:normal;font-stretch:normal;font-family:Roboto;-inkscape-font-specification:Roboto;letter-spacing:0px;fill:#999999;fill-opacity:1"
         id="path4153"
         inkscape:connector-curvature="0" />
      <path
         d="m 467.06826,846.58097 q 2.19545,-0.8444 3.60279,-2.42063 1.40734,-1.57622 2.25174,-3.71538 0.84441,-2.08286 1.18217,-4.67237 0.33776,-2.5895 0.33776,-5.46048 l 0,-11.42761 q 0,-5.62936 2.47692,-10.18914 2.47692,-4.55979 7.9937,-7.26188 -5.51678,-2.70209 -7.9937,-7.26188 -2.47692,-4.55978 -2.47692,-10.18915 l 0,-11.4276 q 0,-2.87098 -0.33776,-5.46048 -0.33776,-2.58951 -1.18217,-4.67238 -0.8444,-2.13915 -2.25174,-3.71538 -1.40734,-1.57622 -3.60279,-2.42062 l 3.5465,-9.90768 q 5.79824,1.63252 9.6825,4.27832 3.88426,2.5895 6.24859,6.02341 2.36433,3.37762 3.32133,7.43076 1.01328,3.99685 1.01328,8.44405 l 0,11.4276 q 0,2.53322 0.50664,4.61608 0.56294,2.02657 1.63252,3.49021 1.12587,1.40734 2.81468,2.19545 1.7451,0.78811 4.16573,0.78811 l 0,12.77865 q -4.84125,0 -6.98041,3.03986 -2.13916,2.98356 -2.13916,7.99369 l 0,11.42761 q 0,4.4472 -1.01328,8.44405 -0.957,4.05314 -3.32133,7.43075 -2.36433,3.43392 -6.24859,6.07972 -3.88426,2.6458 -9.6825,4.27831 l -3.5465,-9.96397 z"
         style="font-style:normal;font-variant:normal;font-weight:normal;font-stretch:normal;font-family:Roboto;-inkscape-font-specification:Roboto;letter-spacing:0px;fill:#999999;fill-opacity:1"
         id="path4155"
         inkscape:connector-curvature="0" />
    </g>
  </g>
</svg>
